<mxfile host="drawio-plugin" agent="Mozilla/5.0 (Windows NT 10.0; Win64; x64) AppleWebKit/537.36 (KHTML, like Gecko) Chrome/122.0.0.0 Safari/537.36" modified="2025-04-03T18:32:52.325Z" version="22.1.22" etag="-JHskjZFoBLFE7Ceq8D2" type="embed">
  <diagram id="C5RBs43oDa-KdzZeNtuy" name="Page-1">
    <mxGraphModel dx="752" dy="536" grid="1" gridSize="10" guides="1" tooltips="1" connect="1" arrows="1" fold="1" page="1" pageScale="1" pageWidth="827" pageHeight="1169" math="0" shadow="0">
      <root>
        <mxCell id="WIyWlLk6GJQsqaUBKTNV-0" />
        <mxCell id="WIyWlLk6GJQsqaUBKTNV-1" parent="WIyWlLk6GJQsqaUBKTNV-0" />
        <mxCell id="16zWEWGnx2j6OPcyL3wF-7" style="edgeStyle=orthogonalEdgeStyle;rounded=0;orthogonalLoop=1;jettySize=auto;html=1;exitX=1;exitY=0.5;exitDx=0;exitDy=0;entryX=0;entryY=0.5;entryDx=0;entryDy=0;" parent="WIyWlLk6GJQsqaUBKTNV-1" source="16zWEWGnx2j6OPcyL3wF-1" target="16zWEWGnx2j6OPcyL3wF-2" edge="1">
          <mxGeometry relative="1" as="geometry" />
        </mxCell>
        <mxCell id="16zWEWGnx2j6OPcyL3wF-1" value="Start" style="ellipse;whiteSpace=wrap;html=1;" parent="WIyWlLk6GJQsqaUBKTNV-1" vertex="1">
          <mxGeometry x="20" y="54" width="50" height="30" as="geometry" />
        </mxCell>
        <mxCell id="16zWEWGnx2j6OPcyL3wF-8" style="edgeStyle=orthogonalEdgeStyle;rounded=0;orthogonalLoop=1;jettySize=auto;html=1;exitX=1;exitY=0.5;exitDx=0;exitDy=0;entryX=0;entryY=0.5;entryDx=0;entryDy=0;" parent="WIyWlLk6GJQsqaUBKTNV-1" source="16zWEWGnx2j6OPcyL3wF-2" target="16zWEWGnx2j6OPcyL3wF-4" edge="1">
          <mxGeometry relative="1" as="geometry" />
        </mxCell>
        <mxCell id="16zWEWGnx2j6OPcyL3wF-38" style="edgeStyle=orthogonalEdgeStyle;rounded=0;orthogonalLoop=1;jettySize=auto;html=1;exitX=0.5;exitY=1;exitDx=0;exitDy=0;" parent="WIyWlLk6GJQsqaUBKTNV-1" source="16zWEWGnx2j6OPcyL3wF-2" edge="1">
          <mxGeometry relative="1" as="geometry">
            <mxPoint x="151.6363636363635" y="120" as="targetPoint" />
          </mxGeometry>
        </mxCell>
        <mxCell id="16zWEWGnx2j6OPcyL3wF-2" value="Is&lt;br&gt;Ip has 4&lt;br&gt;&amp;nbsp;segments&lt;br&gt;?" style="rhombus;whiteSpace=wrap;html=1;" parent="WIyWlLk6GJQsqaUBKTNV-1" vertex="1">
          <mxGeometry x="110" y="29" width="82.5" height="80" as="geometry" />
        </mxCell>
        <mxCell id="16zWEWGnx2j6OPcyL3wF-9" style="edgeStyle=orthogonalEdgeStyle;rounded=0;orthogonalLoop=1;jettySize=auto;html=1;exitX=1;exitY=0.5;exitDx=0;exitDy=0;entryX=0;entryY=0.5;entryDx=0;entryDy=0;" parent="WIyWlLk6GJQsqaUBKTNV-1" source="16zWEWGnx2j6OPcyL3wF-4" target="16zWEWGnx2j6OPcyL3wF-6" edge="1">
          <mxGeometry relative="1" as="geometry" />
        </mxCell>
        <mxCell id="16zWEWGnx2j6OPcyL3wF-51" style="edgeStyle=orthogonalEdgeStyle;rounded=0;orthogonalLoop=1;jettySize=auto;html=1;exitX=0.5;exitY=0;exitDx=0;exitDy=0;" parent="WIyWlLk6GJQsqaUBKTNV-1" source="16zWEWGnx2j6OPcyL3wF-4" edge="1">
          <mxGeometry relative="1" as="geometry">
            <mxPoint x="269.81818181818176" y="20" as="targetPoint" />
          </mxGeometry>
        </mxCell>
        <mxCell id="16zWEWGnx2j6OPcyL3wF-4" value="Is&lt;br&gt;Ip segment&lt;br&gt;starts with 0&lt;br&gt;?" style="rhombus;whiteSpace=wrap;html=1;" parent="WIyWlLk6GJQsqaUBKTNV-1" vertex="1">
          <mxGeometry x="224" y="31" width="92" height="76" as="geometry" />
        </mxCell>
        <mxCell id="16zWEWGnx2j6OPcyL3wF-44" style="edgeStyle=orthogonalEdgeStyle;rounded=0;orthogonalLoop=1;jettySize=auto;html=1;exitX=0.5;exitY=1;exitDx=0;exitDy=0;" parent="WIyWlLk6GJQsqaUBKTNV-1" source="16zWEWGnx2j6OPcyL3wF-6" edge="1">
          <mxGeometry relative="1" as="geometry">
            <mxPoint x="389.81818181818176" y="120" as="targetPoint" />
            <Array as="points">
              <mxPoint x="390" y="120" />
              <mxPoint x="390" y="120" />
            </Array>
          </mxGeometry>
        </mxCell>
        <mxCell id="16zWEWGnx2j6OPcyL3wF-49" style="edgeStyle=orthogonalEdgeStyle;rounded=0;orthogonalLoop=1;jettySize=auto;html=1;exitX=1;exitY=0.5;exitDx=0;exitDy=0;entryX=1;entryY=0.5;entryDx=0;entryDy=0;" parent="WIyWlLk6GJQsqaUBKTNV-1" source="16zWEWGnx2j6OPcyL3wF-6" target="16zWEWGnx2j6OPcyL3wF-10" edge="1">
          <mxGeometry relative="1" as="geometry" />
        </mxCell>
        <mxCell id="16zWEWGnx2j6OPcyL3wF-6" value="Is&lt;br&gt;Ip segment&lt;br&gt;!= 0&lt;br&gt;?" style="rhombus;whiteSpace=wrap;html=1;" parent="WIyWlLk6GJQsqaUBKTNV-1" vertex="1">
          <mxGeometry x="340" y="29" width="100" height="80" as="geometry" />
        </mxCell>
        <mxCell id="16zWEWGnx2j6OPcyL3wF-22" style="edgeStyle=orthogonalEdgeStyle;rounded=0;orthogonalLoop=1;jettySize=auto;html=1;exitX=0;exitY=0.5;exitDx=0;exitDy=0;entryX=1;entryY=0.5;entryDx=0;entryDy=0;" parent="WIyWlLk6GJQsqaUBKTNV-1" source="16zWEWGnx2j6OPcyL3wF-10" target="16zWEWGnx2j6OPcyL3wF-21" edge="1">
          <mxGeometry relative="1" as="geometry" />
        </mxCell>
        <mxCell id="16zWEWGnx2j6OPcyL3wF-10" value="Is&lt;br&gt;Ip segment&lt;br&gt;Integer value&lt;br&gt;?" style="rhombus;whiteSpace=wrap;html=1;" parent="WIyWlLk6GJQsqaUBKTNV-1" vertex="1">
          <mxGeometry x="431" y="142" width="100" height="80" as="geometry" />
        </mxCell>
        <mxCell id="16zWEWGnx2j6OPcyL3wF-15" value="" style="endArrow=none;html=1;rounded=0;" parent="WIyWlLk6GJQsqaUBKTNV-1" edge="1">
          <mxGeometry width="50" height="50" relative="1" as="geometry">
            <mxPoint x="269.71" y="29" as="sourcePoint" />
            <mxPoint x="269.71" y="9" as="targetPoint" />
          </mxGeometry>
        </mxCell>
        <mxCell id="16zWEWGnx2j6OPcyL3wF-16" value="" style="endArrow=none;html=1;rounded=0;" parent="WIyWlLk6GJQsqaUBKTNV-1" edge="1">
          <mxGeometry width="50" height="50" relative="1" as="geometry">
            <mxPoint x="270" y="10" as="sourcePoint" />
            <mxPoint x="480" y="10" as="targetPoint" />
          </mxGeometry>
        </mxCell>
        <mxCell id="16zWEWGnx2j6OPcyL3wF-27" style="edgeStyle=orthogonalEdgeStyle;rounded=0;orthogonalLoop=1;jettySize=auto;html=1;exitX=0;exitY=0.5;exitDx=0;exitDy=0;entryX=0.5;entryY=0;entryDx=0;entryDy=0;" parent="WIyWlLk6GJQsqaUBKTNV-1" source="16zWEWGnx2j6OPcyL3wF-21" target="16zWEWGnx2j6OPcyL3wF-25" edge="1">
          <mxGeometry relative="1" as="geometry" />
        </mxCell>
        <mxCell id="16zWEWGnx2j6OPcyL3wF-21" value="Is&lt;br&gt;Ip segment&lt;br&gt;between 0&lt;br&gt;&amp;nbsp;and 255&amp;nbsp;&lt;br&gt;?" style="rhombus;whiteSpace=wrap;html=1;" parent="WIyWlLk6GJQsqaUBKTNV-1" vertex="1">
          <mxGeometry x="297" y="138" width="110" height="88" as="geometry" />
        </mxCell>
        <mxCell id="16zWEWGnx2j6OPcyL3wF-24" value="End" style="ellipse;whiteSpace=wrap;html=1;" parent="WIyWlLk6GJQsqaUBKTNV-1" vertex="1">
          <mxGeometry x="20" y="226" width="50" height="30" as="geometry" />
        </mxCell>
        <mxCell id="16zWEWGnx2j6OPcyL3wF-28" style="edgeStyle=orthogonalEdgeStyle;rounded=0;orthogonalLoop=1;jettySize=auto;html=1;exitX=0;exitY=0.5;exitDx=0;exitDy=0;entryX=1;entryY=0.5;entryDx=0;entryDy=0;" parent="WIyWlLk6GJQsqaUBKTNV-1" source="16zWEWGnx2j6OPcyL3wF-25" target="16zWEWGnx2j6OPcyL3wF-24" edge="1">
          <mxGeometry relative="1" as="geometry" />
        </mxCell>
        <mxCell id="16zWEWGnx2j6OPcyL3wF-25" value="Return true" style="rounded=0;whiteSpace=wrap;html=1;" parent="WIyWlLk6GJQsqaUBKTNV-1" vertex="1">
          <mxGeometry x="100" y="222" width="70" height="30" as="geometry" />
        </mxCell>
        <mxCell id="16zWEWGnx2j6OPcyL3wF-29" style="edgeStyle=orthogonalEdgeStyle;rounded=0;orthogonalLoop=1;jettySize=auto;html=1;exitX=0.5;exitY=1;exitDx=0;exitDy=0;entryX=0.5;entryY=0;entryDx=0;entryDy=0;" parent="WIyWlLk6GJQsqaUBKTNV-1" source="16zWEWGnx2j6OPcyL3wF-26" target="16zWEWGnx2j6OPcyL3wF-24" edge="1">
          <mxGeometry relative="1" as="geometry" />
        </mxCell>
        <mxCell id="16zWEWGnx2j6OPcyL3wF-26" value="Return false" style="rounded=0;whiteSpace=wrap;html=1;" parent="WIyWlLk6GJQsqaUBKTNV-1" vertex="1">
          <mxGeometry x="10" y="170" width="70" height="30" as="geometry" />
        </mxCell>
        <mxCell id="16zWEWGnx2j6OPcyL3wF-30" value="yes" style="text;html=1;align=center;verticalAlign=middle;whiteSpace=wrap;rounded=0;" parent="WIyWlLk6GJQsqaUBKTNV-1" vertex="1">
          <mxGeometry x="188" y="39" width="30" height="21" as="geometry" />
        </mxCell>
        <mxCell id="16zWEWGnx2j6OPcyL3wF-31" value="yes" style="text;html=1;align=center;verticalAlign=middle;whiteSpace=wrap;rounded=0;" parent="WIyWlLk6GJQsqaUBKTNV-1" vertex="1">
          <mxGeometry x="310" y="40" width="30" height="21" as="geometry" />
        </mxCell>
        <mxCell id="16zWEWGnx2j6OPcyL3wF-32" value="yes" style="text;html=1;align=center;verticalAlign=middle;whiteSpace=wrap;rounded=0;" parent="WIyWlLk6GJQsqaUBKTNV-1" vertex="1">
          <mxGeometry x="440" y="39" width="30" height="21" as="geometry" />
        </mxCell>
        <mxCell id="16zWEWGnx2j6OPcyL3wF-33" value="yes" style="text;html=1;align=center;verticalAlign=middle;whiteSpace=wrap;rounded=0;" parent="WIyWlLk6GJQsqaUBKTNV-1" vertex="1">
          <mxGeometry x="408" y="154" width="30" height="21" as="geometry" />
        </mxCell>
        <mxCell id="16zWEWGnx2j6OPcyL3wF-34" value="yes" style="text;html=1;align=center;verticalAlign=middle;whiteSpace=wrap;rounded=0;" parent="WIyWlLk6GJQsqaUBKTNV-1" vertex="1">
          <mxGeometry x="259" y="156" width="30" height="21" as="geometry" />
        </mxCell>
        <mxCell id="16zWEWGnx2j6OPcyL3wF-35" value="No" style="text;html=1;align=center;verticalAlign=middle;whiteSpace=wrap;rounded=0;" parent="WIyWlLk6GJQsqaUBKTNV-1" vertex="1">
          <mxGeometry x="341" y="89" width="30" height="21" as="geometry" />
        </mxCell>
        <mxCell id="16zWEWGnx2j6OPcyL3wF-37" value="" style="endArrow=none;html=1;rounded=0;" parent="WIyWlLk6GJQsqaUBKTNV-1" edge="1">
          <mxGeometry width="50" height="50" relative="1" as="geometry">
            <mxPoint x="41" y="120" as="sourcePoint" />
            <mxPoint x="390" y="120" as="targetPoint" />
          </mxGeometry>
        </mxCell>
        <mxCell id="16zWEWGnx2j6OPcyL3wF-45" value="" style="endArrow=classic;html=1;rounded=0;entryX=0.421;entryY=-0.024;entryDx=0;entryDy=0;entryPerimeter=0;" parent="WIyWlLk6GJQsqaUBKTNV-1" target="16zWEWGnx2j6OPcyL3wF-26" edge="1">
          <mxGeometry width="50" height="50" relative="1" as="geometry">
            <mxPoint x="40" y="120" as="sourcePoint" />
            <mxPoint x="40" y="160" as="targetPoint" />
          </mxGeometry>
        </mxCell>
        <mxCell id="16zWEWGnx2j6OPcyL3wF-46" value="No" style="text;html=1;align=center;verticalAlign=middle;whiteSpace=wrap;rounded=0;" parent="WIyWlLk6GJQsqaUBKTNV-1" vertex="1">
          <mxGeometry x="229" y="10" width="30" height="21" as="geometry" />
        </mxCell>
        <mxCell id="16zWEWGnx2j6OPcyL3wF-47" value="No" style="text;html=1;align=center;verticalAlign=middle;whiteSpace=wrap;rounded=0;" parent="WIyWlLk6GJQsqaUBKTNV-1" vertex="1">
          <mxGeometry x="105" y="92" width="30" height="21" as="geometry" />
        </mxCell>
        <mxCell id="16zWEWGnx2j6OPcyL3wF-50" value="" style="endArrow=classic;html=1;rounded=0;" parent="WIyWlLk6GJQsqaUBKTNV-1" edge="1">
          <mxGeometry width="50" height="50" relative="1" as="geometry">
            <mxPoint x="480.55" y="10" as="sourcePoint" />
            <mxPoint x="480" y="70" as="targetPoint" />
          </mxGeometry>
        </mxCell>
        <mxCell id="16zWEWGnx2j6OPcyL3wF-52" value="&lt;b&gt;IPv4 Flow Chart&lt;/b&gt;" style="text;html=1;align=center;verticalAlign=middle;whiteSpace=wrap;rounded=0;" parent="WIyWlLk6GJQsqaUBKTNV-1" vertex="1">
          <mxGeometry x="630" y="89" width="120" height="51" as="geometry" />
        </mxCell>
      </root>
    </mxGraphModel>
  </diagram>
</mxfile>
